<mxfile host="app.diagrams.net" agent="Mozilla/5.0 (Windows NT 10.0; Win64; x64) AppleWebKit/537.36 (KHTML, like Gecko) Chrome/135.0.0.0 Safari/537.36" version="26.2.14">
  <diagram id="7gcUSTIZ7YSJ5vT40chW" name="Page-1">
    <mxGraphModel grid="1" page="1" gridSize="10" guides="1" tooltips="1" connect="1" arrows="1" fold="1" pageScale="1" pageWidth="1169" pageHeight="827" background="#ffffff" math="0" shadow="0">
      <root>
        <mxCell id="0" />
        <mxCell id="1" parent="0" />
        <mxCell id="M7SeO1mPTdzSNuAZCHN5-28" value="" style="fillColor=none;rounded=0;labelBackgroundColor=none;fontColor=none;noLabel=1;shadow=0;glass=0;html=1;whiteSpace=wrap;verticalAlign=middle;" vertex="1" parent="1">
          <mxGeometry x="160" y="-730" width="920" height="570" as="geometry" />
        </mxCell>
        <mxCell id="M7SeO1mPTdzSNuAZCHN5-29" value="" style="whiteSpace=wrap;html=1;rounded=0;fillColor=none;" vertex="1" parent="1">
          <mxGeometry x="202.82" y="-677.5" width="838.18" height="257.5" as="geometry" />
        </mxCell>
        <mxCell id="M7SeO1mPTdzSNuAZCHN5-30" value="Azure Cloud - US Central Region" style="image;aspect=fixed;html=1;points=[];align=left;fontSize=17;image=img/lib/azure2/other/Azure_A.svg;labelBackgroundColor=none;labelPosition=right;verticalLabelPosition=middle;verticalAlign=middle;spacing=8;" vertex="1" parent="1">
          <mxGeometry x="160" y="-770" width="31.82" height="30" as="geometry" />
        </mxCell>
        <mxCell id="M7SeO1mPTdzSNuAZCHN5-35" value="Virtual Network - packer-vnet" style="image;aspect=fixed;html=1;points=[];align=left;fontSize=17;image=img/lib/azure2/networking/Virtual_Networks.svg;labelBackgroundColor=none;labelPosition=right;verticalLabelPosition=middle;verticalAlign=middle;spacing=8;" vertex="1" parent="1">
          <mxGeometry x="202.82" y="-713" width="40" height="23.88" as="geometry" />
        </mxCell>
        <mxCell id="M7SeO1mPTdzSNuAZCHN5-36" value="" style="whiteSpace=wrap;html=1;fillColor=none;rounded=0;" vertex="1" parent="1">
          <mxGeometry x="251" y="-628.75" width="460" height="160" as="geometry" />
        </mxCell>
        <mxCell id="M7SeO1mPTdzSNuAZCHN5-42" value="&lt;div&gt;&lt;span style=&quot;color: light-dark(rgb(0, 0, 0), rgb(255, 255, 255));&quot;&gt;packer-subnet&lt;/span&gt;&lt;/div&gt;" style="image;aspect=fixed;html=1;points=[];align=left;fontSize=12;image=img/lib/azure2/networking/Subnet.svg;labelBackgroundColor=none;labelPosition=right;verticalLabelPosition=middle;verticalAlign=middle;spacing=9;" vertex="1" parent="1">
          <mxGeometry x="251" y="-660" width="33.4" height="20" as="geometry" />
        </mxCell>
        <mxCell id="ckLyT5EqBb1HqFQdgZS1-1" value="" style="whiteSpace=wrap;html=1;fillColor=none;rounded=0;" vertex="1" parent="1">
          <mxGeometry x="781" y="-628.75" width="200" height="160" as="geometry" />
        </mxCell>
        <mxCell id="ckLyT5EqBb1HqFQdgZS1-2" value="Bastion subnet" style="image;aspect=fixed;html=1;points=[];align=left;fontSize=12;image=img/lib/azure2/networking/Subnet.svg;labelBackgroundColor=none;labelPosition=right;verticalLabelPosition=middle;verticalAlign=middle;spacing=9;" vertex="1" parent="1">
          <mxGeometry x="781" y="-660" width="33.4" height="20" as="geometry" />
        </mxCell>
        <mxCell id="ckLyT5EqBb1HqFQdgZS1-6" value="Bastion Host forÂ &#xa;SSH and RDP" style="shape=image;verticalLabelPosition=bottom;labelBackgroundColor=none;verticalAlign=top;aspect=fixed;imageAspect=0;image=data:image/png,iVBORw0KGgoAAAANSUhEUgAAAlgAAAE7CAYAAAAB7v+1AAAAAXNSR0IArs4c6QAAAARnQU1BAACxjwv8YQUAAAAJcEhZcwAADsMAAA7DAcdvqGQAABflSURBVHhe7d0hcBxX1gZQsYU/DAw0DDQ0DBQ0DDSUZ5wqsw0LNDQMNDQU1AKrWxUiaChoKLh0/7k9HVsePdvSTHdP39fnVH1VW7teaXpmknf9+vW9JwAAAAAAAAAAAABAcmf/+b+Tl83rk3V7scntJv/rsmr/u/3vrt5u/vOv/Z8GAOCborBaN2++Kqq+m+bmZNX8cfL73z/1PwEAgM9iR2rVfCoXUj/Mbbfj9e+Lf/U/DQBgwaIoWrV/FYqmPdLcnLy6etb/ZACABVp9eLoprj6Wi6UD8qr9024WALA8cXaqVBwNl+uTs6uf+98GAFCxdfNkU/y0O8XQWLntdskAAKq1vvytb7VQKobGSfw+LR0AgOpE+4VV+75YAE0RRRYAUJXD2i8MmVtnsgCA3La7VgO1XxgsracLAYCc4mB59KQqFznHTTQkBQBII3aHogdVqbCZS+I8ltE6AEAK2/YL1/cKmlmmedO/agCAmYrbblO3Xzgst85iAQDzFLfa1u3FTvGSI6vmeX8VAAAzEU1DYyeoVLzkyLv+SgAAjizaL0RxUi5aEqW56a8IAOCI5tM0dJhEsQgAcBRxIDyevCsVKZnz6upZf4UAABOKpqGr9mOxQMkeBRYAMLlov1AqTGqJAgsAmMy2aWh7ryCpLQosAGAS0X4hV9PQ/XN2+Ut/1QAAI+iahjbnxUKkztz2Vw4AMIJ1c9oVHOVCpNZc9FcPADCg6AO1av8qFB/1Z9We9e8CAMBAuvYLFTUNfUziug17BgAGE4XFq/bPYuGxmDSn/bsBAHCgaL9Qa9PQh6ft3w0AgANF09CltF/4dq7NHwQADte1X2gvdgqNBaY5V1wBAIeLpqHLa79wP6v2vUPtAMBhltx+YTer5o/+XQEA2NOq/XWx7RfuJg7zRysKAIC9ab/wJbF755YgAHCQrmno4tsvRG71uAIADqf9wj+56J6YBADYWzQNjaaZ5WJjOYniMopMAICDRPsFu1bbg+xnl7/07woAwB66pqHNebHYWFyaNw6yAwCHifYLmoZGX6tP3XsBALA3TUPvxLgbAOBQ0X5h3dyUi40FpTtvdvlb/64AAOxB09C7absnJgEA9qb9wpdEkQkAcJBVe7a9HVYoNhaV5sYcQQDgMNovfEkc6HeQHQA4SMzO034hcnuyap737woAwB60X7iT5twcQQDgMNovbGOOIABwMO0X7uZ6U2RqvwAAHED7hS+JItMcQQDgINovbBNzBF9dPevfFQCAPWi/8CXaLwAAB4uWA9ovRDbvgTmCAMAhtF+4mwvtFwCAw8T5ojhnVC42lhPtFwCAg2m/8CWr9qP2CwDAYaJpaFdUFIqNpUX7BQDgYHEbTPsF7RcAgAFoGvol2i8AAAeLlgPaL0S0XwAADrRtv/C+UGgsMdovAAAHWrW/ar+wifYLAMDBtF/4Eu0XAICDRTGh/cI22i8AAAfTfmGbuC0afb4AAPYWB7fXzXmx2FhatF8AAA62bk43hYX2C/EerJrn/bsCALCHbfuFvwqFxgLTnGu/AAAcJs4XrZubcrGxoMR5s1V71r8rAAB70H7hbtruiUkAgL2ZI/gl2i8AkEIsVt1h6au3mwXsotj9e/v4/7tujpuntKYVt8G0X9ikudF+AYD5i6eu9n28f9X80f8UxqL9wpdovwDArMUiFbdYhplR156cXf3c/2SGFHMEtV+IbN6D5rR/VwBghuJW0/CL9u3J2eUv/W/gUN3t2u5Wbem9Xli0XwBgzrYHpK/vL2CDRZE1hDhfZI7g9rxfjP0BgNmKc1ZTHJCOW45uF+7PHMF/svmLgPYLAMxZPPFXXsRGSnOjyHqk7iB7e3H/vVxgtF8AYPa6JwQLi9j4ufa01wPFQfZhHjbInXgPtF8AYPa2Z3mOebtJkfUj2wcOSu/dsqL9AgApbJuGzmFOnSLrW4y7idx2u6wAkMK6eVNYzI6U5tyZmh2z+nyOFe0XAMgkWiUUF7RjZrOYsvXq6ln5PVpI4rZ13BoFgFTmOgw4ztksXezYLPtA++a7qf0CANnMcvfqbpo3/StdpiXfGowzZwCQ0rp9d29hm1uWOiA6DvsvsYlodKXXfgGAtOIgeZYFfIlncJbYkiFuC3vAAYDUZn97cDeXv/WvfBnioH/xfagwXdPQ9tf+ygEgsYw7JEvqgbSUw+2r9r3eZwDUY331trjgzTnbR/br3+noGr8Wrr+u3C5uVxKABYjzLuWFb95ZQpEVw69L115PWk1DAahT1gJrm9vuDFmtat3BiuL4ZfO6v0oAqFDuAitSd5FVvua8ifYLNX9eANCJ8y+lhTBVmpvudlqNajrkHk1DtV8AYBHiDExpMUyXTZFV43me/DuM/9N+AYBlWrcX9xbFnLmu7lH/dXNauM5Eac61XwBgmV5evigvjilzXdVtqLiWnKNytF8AgM2C2O4skInTnFdVZOUb9txWeyYOAB5l3TxJulNSTnQGr0WcLcvw2Wi/AAAFsTiWFs6siQPitVg1fxSvcS6J9gtRpAMABTU8tfZVmjf9leXWNR1tbsrXeOxs3mPtFwDgB2orsmL3pwbRoHNOtwq1XwCAR4ozTKVFNWtW7Vl/ZbmtmufF65s8zbk5ggDwWNtbUuflxTVrKmkbEB3Ri9c3QbqD7Jcv+lcCADxalUVWc9pfXW7HaQ57vXn/HGQHgIPVVmTFDkwN54aiO/qUh97NEQSAgXVFVuxeFBbejIki69XVs/7q8opD713H9MI1DpU4yF7DewUAs9TtmFRUZEVhEgVKdrEbN9aThfGggzmCADCyGH8y215Me2VTZFUw0mX4IsscQQCYVBQkcduovDAnzKZgrKHIioKoeH2PTusgOwAcwxRnf6ZMjHmp4VZY9PoqXd9DEwfZAYAjioPPY539OU6u6yiy9plZ2NycrD487X/CtJzxAoAdYx6wPkqa8ypaETxm1FH82WMUOXEbsrsduYn2DwCwI4qs0sKdNpsiqwYPGXX0snnd/+lpxe/9qjCv5D0HgEENd8B6Holdnex+1CD2GONuYnbht15TDe85AAyutiJr3bzpryyvuPVX7l123f+J6Wy/H99/MMIhewAoiFs/pYUza+LAeHZdkbXTu2zVPO//1/Fti7x3X/3+7yWehAQAduz1FNuMc4xbaUO71yB2oj5X3UMQ+/RM0+QUAO6L22vFhTNrKljwt0/t9bfoRi6wuvNfV2+/fg8fm+a0/2kAwGePaRUw98QTb7Ebk93n3mUjFi/RTysat5bex8eklvccAAb3kFYBWVLLgh/nr8Z6Yi8OqZfeu33TvedHaoAKALP1o1YB+XLbjQnKLs6VRcuEoXxpGlp6zw5NHe85AAyqK7KKrQKy5nb0M0xTGKpoudc0dJRsiqwKBnIDwKC+3Y8paZqbxS/432saOkq85wBw33ZB/rofU+rEgn+EGX5zEIfkPz+ROGHi8PxS33MA+KZ7/ZjS53pRC/4g7RcOznX3OgCAO7oi6wi7H+PlYjEL/myeCm3OFVkAsCsOWFdVZC1gwY8nD4vXfqREsQcA7Ng2pBz76bMp866/sjrNsSAeq58XAKTWzaqrqMiqdcGPDvCl651DorkpALAjiqzSwpk1NS74MYuxdK1zSQwYBwB2zH0Bf2xqW/DnvIP1ORUM5AaAwc3tEPWhieupRbSiSHErV5EFAPfFzk9x4cyaihb8DIO7u+HQFQzkBoDBxRmm0uKZNbUs+NFaI8MuVrzGuKUJAOyIp/FKi2fG1LSrkmeH8XawYdYAUJXoK1VePDOmngU/T/F7e7JunvSvGgDodHPvmvPCwpk19Sz4Gc5jdYmB3Fc/968aAOh0RVbb3l84s6aSBT9V8Rvv+YIGcgPAg8TiuG6v7y+cWVPJgr8tfrN8LteKLADY1RVZm8KkvHhmTB0Lfq7i96L6gdwA8Ghxa62uIquOBT/V59KcK7IAYFe3mMdh8dLimTGVLPjxuayaT+VrnFlqHcgNAAeJdgc1FVm1LPipPpert/2rBgA+W314uilMEszGe2gqWfAzfS61DeQGgEFEd/SaiqxaFvxMn8uqPetfNQDw2bo5LS6cWfOyed1fWW6pPpeKBnIDwGBigSwunFlTyYKf5XOpaVYkAAwqdn5Ki2faNKf9leWW5XOJIuvV1bP+VQMAn8UZptLimTE17ark+VzqGcgNAIOKlgflxTNfosiqZcHP87lsiqwKZkUCwODW7budRTNz6tlVSfO5xKxIRRYAfK0bQtyclxfPjKlkwc/1uRgODQD3dIt52+4smolTU5HVXty/vlnmuooxRgAwqNiBiEWyvHhmTB27Kqk+F8OhAeC+3//+qdv9KS6eKVPHrkpXZGX5XDZFFgCwI26tVVVkVbKrkulzqWUgNwAMKp7EiyfySotnylSyq7JunmyuJ8nn0rzpXzUA8FltRVYtuyqZPpdaBnIDwKCiO3o08CwtnilTya5Kps9l1Z71rxoA+CwW89LCmTW17Kqk+lwqGcgNAIOKBbK4cCZNLbsqmT6XWmZFAsCgoigpLZxpU8muysvLF+Xrm1lqGsgNAIOK22ulxTNralnw83wu9cyKBIBBxUHx8uKZLzXtquT5XBRZAFAULQ/Ki2e+RJFVy4Kf5nOpZFYkAAxu1b4vL54pc7tZ9J/0V5ZbNFUtX+PMsimyYjQTAHBHjJ9Js5g/JJXsqnSfS3tx//pmmToGcgPAoLaLebuzaObNqv1YxYLfDYfeFC+la5xf6hjIDQCDyrWYPyR1LPjd55JlaHclA7kBYFCpFvOHpJIFP255Zvlc4kwfALAj02L+sLzrryy3OLyfZjh0JQO5AWBQmRbzB+XqbX9luUUbijTDoSuZFQkAg4rFvKYiq6bh0FmKrJfN6/5VAwCfZVrMH5JqhkM3p8Xrm2UqmRUJAIOKIqu4cCbNqnneX1luUbiUrm+OqWWMEQAMKtNi/qPEjtyrq2f9leWWZTh0vOeKLAAoeHn5orh4Zsyq+VTNeJdX7Z/Fa5xfDIcGgKIsOyYPy0V/VfnlGdpdz6xIABhUnh2TH6eWQ+8h03DoGmZFAsDg8uyYfD9xq7AW3TzJREVWLbdoAWBQ0SG9uHhmS3PaX1F+2YZDx+sFAO5ItWPyvWyuoSZRtKzaj+VrnV1aw6EBYFdXZKXZMflWbvurqUeqeZKVDOQGgEHl2jEpp8ZD112RlWTU0ap9379qAOCzVDsmhdTSeHRXpnmS8eAEALAjiqx4Kq+0eM49tRZYIa4tzTzJ5k3/qgGAzzLtmNxNzQVWyDS0O5rZAgA7Uu2Y9Fl9eNq/+nplmicZY5kAgB2Zdkxix20pT7Glmie5KQgBgB1ZiqylPcGWZZ5kfHfiOwQA7IgFsrR4zioL3CmJw+TF92JmiSKr9vNxALCXOZ/9iacel9rkMs88ydvu4QkAYMdci6xVe9a/wmXKM+poU2RV2AwWAA42tyJrybtX/+hGHWUpspobRRYAlLxsXpcXz2OkOe1f1bLFqKM88ySvu9cLAOyYw1NsUejxRa55kteGQwNAyXGLrHf9q+CuVPMkm3NFFgCUvGr/LC+eY8bC/F1dkZVm1JFCGYCkfv/7p1HPKk3aKuDqbf9b+Z5M8yTj+wMAqWybhG4X2jE7ak9RZJlt9ziZ5kkaDg1ACtsDz18XPWN31B6ryIpWDDqB7yfLqKOIhxYAmLVuUd0UJaVFbOyO2oP3Y9r8PI/0H2bOXfjvZYEjjwCYuW3DyYfMpxuvo/ZQTS+7XReL7WDi9mrpfZ5jVs3z/lUDwJGtPjzdFCWP6IE0Ykftw4usdvP/f9L/NIYyh95lD0kU12OeFwSAH4piZv9WCeN11O6KrCiUir/324lrif8v43jYDufx0xVZm780AMDkHr1rVcx4HbVjF+qhB6wdZJ/OpG01Dsq45wUB4J544mqwp8NGbNz5sN21dw6yT6jbXRz6YYSREoW34dAAjC52hfa59fbjjNNRe9vwsvT7IrcOsh/J9hbuxc7nMdOMeF4QAE5W7dlwu1aFjNVR+59Gp1+lOe86zHM8sWsYt4jvfTazzHjnBQFYqO2om2lu6YzRUfvr32HXak66IivLcOi29QAEAMPYNomcdqZc7JQNJQ7if/nZ13atZqgbDp2lyBrxvCAACxA7C6v2fXmRmSID7TJ9aQvwzsI4Y9uzfdMW8vtmrFvZAFTu+6NupskQzR63u1duCWYRDySMecZvyJhbCMCDbXet5tOjKBbbfXtTdefG2nfdzgh5ZBoOrW8aAD80h12rcm4fXSTFrUCjTvJaN6eF78H8Ev+8ONMHQFEUI/uPupko0YfII/KLsn24ovBdmF3G6d8GQGLDjLqZKM15/6pZipeXL8rfhZnFOB0AOil2rQpx5mV5oi9a6bswqzRv+lcLwGJtn9RKsmu1E4/HL9Pc/zIQh/LdwgZYsEEHNB8jzU1/JSzNnJ5uLcVDFQALNN6A5omjwFq0ru1G6Xsxgww5fQCABNLvWn2Vtr8qlijODk41E/Px8TQhwCJUs2t1J2MMgiaXrsia5ff6on+FAFTrGAOax46mjvwjDpTH4O7S9+R4UWABVKsbDzPbWyiHZdU8768S+iKruSl+V44TBRZAlWrctfocw5opOLv6eTZF1qp9378qAKpQ967VJ81F+a7tWcPj/8UienUBUInovVPrrlX0PdK8kYeI5rnH/ufALWyACkThMffGi/smdq00beSx4jtzzHYkcbsSgMS6hWRThJT+JZ8+zbknBdnb8YosB9wB0qp516q7veMgOwPY3jYvfcdGjO8uQE6rD09n9kj6kLmwa8Wgtk/Ulr5rwyd2k6P5KQCJxL+44+mk0r/Ysydu5cQYHxjDZEVWc9r/RgBSiF2rVfux/C/19Gm7x+thTOOfyTIbEyAVu1YwjLFaOMRffrQRAUiixgHN/6TbjbNrxRFsx+q8KX4v90lXXGnLAJBD7Owcs4/PmIkdOQeBObbtX2De3ft+Pia+ywBJ1L5rFWfJYE5iR+vl5YvNP3sPHTF10f15T7sCJLF90qnOUTf+pk8WcbsvZl7uxi1tgGRqH9AcT28BAEym5l0rA5oBgEltR928LxYm2WPXCgCYXNfwsNYBze07u1YAwHS2u1YGNAMADKLqXavm3CPrAMB07FoBAAyoG9Bc7Vmr1ngQAGA60VDTgGYAgIF0u1YxyLhQnORPq5s1ADAdu1YAAAOqedequy67VgDAVGretYoY0AwATCp2dbozSYXCJHti1yp25QAAJhPnkeJcUqk4yR67VgDApOxaAQAMqOZdq3Xzxq4VADCd6FZe7a5V82lTNP7aXykAwARizl43b69QnGRPzEeMOYkAAJP4/e+fTtbNebEwyR67VgDA5OxaAQAMxK4VAMCAat61iqIxikcAgEnE7bK4bVYsTNJnUzBuCkcAgMnELbO4dVYuTpLHrhUAMCW7VgAAA7JrBQAwkBgDE0OMi4VJ+ti1AgAmFgOMY5BxuThJHrtWAMCU7FoBAAyo6l2rtu0GUAMATKLmXatV+9+Tl83r/koBACZQ+67VunnSXykAwMjqPmsVcwT/6K8UAGACNe9axXXF9QEATKL2Xau4trhGAIBJ2LUCABhIzBC0awUAMJAortbt9b2ipIbYtQIAJhdNNdfNTbE4yR67VgDA5GLOXo3FlV0rAOBo1u3FveIke1btX90tTwCAya3as2KBkjWr5tPmmn7trw4AYGKxwxOz90qFSsbYtQIAjq6W3Su7VgDAbNTQksGuFQAwG+vmSbFgyRK7VgDA7KwvfysWLhli1woAmKV186ZYvMw7t5vXfdpfAQDAzKTrfdWcdw1RAQBmK88B99vudiYAwOylGI1j1woAyGTOBVbX/NSuFQCQzXxvEbab4u9J/yoBABJZte8Lxc3xErtWL5vX/asDAEhoffW2WOgcI6v2o10rACC/6CdVKnamzqv2z5N/X/yrf1UAAIlFUdMdJi8UPVMkdq1WH572rwYAoBLHOocVo27sWgEAVTq7/KVYAI0VA5oBgEWYbBdL01AAYCnO/vN/mwJovJ5Ycc5r1Z71vw0AYCGiyBpjJ8tBdgBg8V5dPeuKolKx9JjEWSujbgAA7ohdp3jSb93e3iuevpduF2xTWHlCEADgO+JJw5eXL/qC6+KrRJPQVfPHJs8VVQAAAAAAAOM4Ofl/jl+zD1VnaGIAAAAASUVORK5CYII=;" vertex="1" parent="1">
          <mxGeometry x="842" y="-585.05" width="78" height="40.95" as="geometry" />
        </mxCell>
        <mxCell id="ckLyT5EqBb1HqFQdgZS1-8" value="Games VM Instance" style="image;sketch=0;aspect=fixed;html=1;points=[];align=center;fontSize=12;image=img/lib/mscae/VM_Linux.svg;labelBackgroundColor=none;" vertex="1" parent="1">
          <mxGeometry x="311" y="-590" width="78" height="71.76" as="geometry" />
        </mxCell>
        <mxCell id="ckLyT5EqBb1HqFQdgZS1-9" value="Desktop VM Instance" style="image;sketch=0;aspect=fixed;html=1;points=[];align=center;image=img/lib/mscae/VirtualMachineWindows.svg;labelBackgroundColor=none;" vertex="1" parent="1">
          <mxGeometry x="571" y="-590" width="78" height="71.76" as="geometry" />
        </mxCell>
        <mxCell id="ckLyT5EqBb1HqFQdgZS1-10" value="Games Image&amp;nbsp;&lt;div&gt;Built with Packer&lt;/div&gt;" style="image;sketch=0;aspect=fixed;html=1;points=[];align=center;fontSize=12;image=img/lib/mscae/VM_Images.svg;labelBackgroundColor=none;" vertex="1" parent="1">
          <mxGeometry x="311" y="-350" width="78" height="71.76" as="geometry" />
        </mxCell>
        <mxCell id="ckLyT5EqBb1HqFQdgZS1-11" value="Desktop Image&amp;nbsp;&lt;div&gt;Built with Packer&lt;/div&gt;" style="image;sketch=0;aspect=fixed;html=1;points=[];align=center;fontSize=12;image=img/lib/mscae/VM_Images.svg;labelBackgroundColor=none;" vertex="1" parent="1">
          <mxGeometry x="571" y="-350" width="78" height="71.76" as="geometry" />
        </mxCell>
        <mxCell id="ckLyT5EqBb1HqFQdgZS1-12" value="Key Vault&lt;div&gt;&quot;packer-credentials&quot; Secret&lt;/div&gt;" style="image;aspect=fixed;html=1;points=[];align=center;fontSize=12;image=img/lib/azure2/security/Key_Vaults.svg;" vertex="1" parent="1">
          <mxGeometry x="852" y="-346.24" width="68" height="68" as="geometry" />
        </mxCell>
      </root>
    </mxGraphModel>
  </diagram>
</mxfile>
